<svg xmlns="http://www.w3.org/2000/svg" viewBox="0 0 900 360">
  <defs>
    <linearGradient id="g" x1="0" x2="1">
      <stop offset="0" stop-color="#4cc2ff"/>
      <stop offset="1" stop-color="#7ef5a2"/>
    </linearGradient>
    <style>
      .box{fill:#0f1620;stroke:url(#g);stroke-width:2;rx:10;ry:10}
      .t{fill:#e6eef8;font:600 14px Inter, sans-serif}
    </style>
  </defs>
  <rect width="100%" height="100%" fill="#0e141b"/>
  <rect class="box" x="40" y="40" width="130" height="60"/>
  <text class="t" x="105" y="75" text-anchor="middle">Tokens</text>
  <rect class="box" x="210" y="40" width="160" height="60"/>
  <text class="t" x="290" y="75" text-anchor="middle">Embeddings</text>
  <rect class="box" x="410" y="40" width="220" height="60"/>
  <text class="t" x="520" y="75" text-anchor="middle">Self-Attention Blocks × N</text>
  <rect class="box" x="660" y="40" width="180" height="60"/>
  <text class="t" x="750" y="75" text-anchor="middle">Logits → Decode</text>
  <g stroke="url(#g)" stroke-width="2" fill="none">
    <path d="M170,70 L210,70"/>
    <path d="M370,70 L410,70"/>
    <path d="M630,70 L660,70"/>
    <polygon points="660,70 650,65 650,75" fill="url(#g)"/>
    <polygon points="410,70 400,65 400,75" fill="url(#g)"/>
    <polygon points="210,70 200,65 200,75" fill="url(#g)"/>
  </g>
  <text class="t" x="520" y="140" text-anchor="middle" fill="#a9b6c6">+ Positional Encodings</text>
</svg>
