<svg xmlns="http://www.w3.org/2000/svg" viewBox="0 0 512 512" aria-label="Hugging Face illustrative icon">
  <defs>
    <radialGradient id="g" cx="50%" cy="45%" r="60%">
      <stop offset="0" stop-color="#ffe072"/>
      <stop offset="1" stop-color="#ffbf3f"/>
    </radialGradient>
  </defs>
  <rect width="100%" height="100%" fill="none"/>
  <circle cx="256" cy="256" r="200" fill="url(#g)" stroke="#f6a700" stroke-width="6"/>
  <!-- Eyes -->
  <circle cx="186" cy="220" r="20" fill="#2b2b2b"/>
  <circle cx="326" cy="220" r="20" fill="#2b2b2b"/>
  <!-- Smile -->
  <path d="M156 286c22 44 76 66 100 66s78-22 100-66" fill="none" stroke="#2b2b2b" stroke-width="16" stroke-linecap="round"/>
  <!-- Simple arms (hugging) -->
  <path d="M90 310c20-10 44-10 64 0 8 4 12 14 8 22-12 28-42 46-76 40-12-2-14-18-6-26 6-6 6-14 10-20z" fill="#ffbf3f" stroke="#f6a700" stroke-width="6"/>
  <path d="M422 310c-20-10-44-10-64 0-8 4-12 14-8 22 12 28 42 46 76 40 12-2 14-18 6-26-6-6-6-14-10-20z" fill="#ffbf3f" stroke="#f6a700" stroke-width="6"/>
</svg>
